# xmcd
#
# Track frame offsets: 
#        150
#        15860
#        29000
#        44525
#        61775
#        83850
#        96438
#        111113
#        125238
#        138773
#        149735
#        162288
#        177048
#        192450
#        207248
#        222500
#
# Disc length: 3235 seconds
#
# Revision: 0
# Processed by: cddbd v1.5.2PL0 Copyright (c) Steve Scherf et al.
# Submitted via: ExactAudioCopy v0.95b4
#
DISCID=ee0ca110
DTITLE=Various Artist - MarSil Productions' Body and Soul
DYEAR=1983
DGENRE=Soul
TTITLE0=Dee Dee Warwick - Foolish Fool
TTITLE1=The Impressions - Fool For You
TTITLE2=The Natural Four - Can This Be Real
TTITLE3=The Joneses - Pretty Pretty
TTITLE4=The Futures - Love Is Here
TTITLE5=Ronnie Dyson-When - You Get Right Down To It
TTITLE6=Soul Generation - Million Dollars
TTITLE7=Soul Generation - That's The Way It's Got To Be
TTITLE8=The Delfonics - Can You Remember
TTITLE9=Barbara Lynn - You'll Lose A Good Thing
TTITLE10=The Players - He'll Be Back
TTITLE11=Billy Stewart - Sitting In The Park
TTITLE12=The Dells - I Can Sing A Rainbow-Love Is Blue
TTITLE13=The Stylistics - You're A Big Girl Now
TTITLE14=The Lovelites - How Can I Tell My Mom And Dad
TTITLE15=Eddie Kendricks - Not On The Outside
EXTD=
EXTT0=
EXTT1=
EXTT2=
EXTT3=
EXTT4=
EXTT5=
EXTT6=
EXTT7=
EXTT8=
EXTT9=
EXTT10=
EXTT11=
EXTT12=
EXTT13=
EXTT14=
EXTT15=
PLAYORDER=
